<?xml version="1.0" encoding="UTF-8"?>
<svg version="1.1" viewBox="0 0 2048 2048" width="180" height="180" xmlns="http://www.w3.org/2000/svg">
<path transform="translate(0)" d="m0 0h2048v2048h-2048z" fill="#FEFEFE"/>
<path transform="translate(820,165)" d="m0 0h67l49 1 8 1-1 54-2 184-1 80 8-4 13-12 11-9 14-12 11-9 14-12 13-11 14-11 11-10 11-9 10-9 10-8 10-9 14-11 9-8 11-9 10-9 11-9 14-12 12-10 11-9 14-12 10-9 11-9 13-12 14-11 4 2 7 7 11 14 12 14 22 26 9 11 11 13 4 6-3 5-12 10-11 9-10 9-10 8-14 12-11 9-15 13-14 12-11 9-14 12-10 8-28 24-26 22-11 9-26 22-28 24-13 11-11 9-28 24-14 11-10 8-8 7 2 5 13 10 10 9 11 9 14 12 10 8 14 12 26 22 11 9 28 24 14 11 10 9 11 9 15 13 11 9 14 12 13 11 11 9 28 24 13 11 11 9 15 13 14 12 11 9 10 8-2 5-7 9-11 12-9 11-10 12-9 11-30 35-4-1-16-15-9-7-13-11-11-9-14-12-11-9-13-11-14-12-11-9-15-13-11-9-14-12-13-11-11-9-15-13-8-7-13-11-11-9-26-22-11-9-13-11-10-8-16-13-8-7-1 3v30l-2 167-2 89 31-5 30-3 20-1h12l31 2 32 4 28 5 32 8 38 13 23 10 21 10 23 13 23 14 18 13 14 11 11 10 8 7 7 7 8 7 7 7 7 8 13 14 11 14 10 13 10 15 12 20 10 18 13 26 9 21 10 28 7 24 8 41 4 27 2 24v42l-3 34-6 37-7 32-9 29-10 25-9 20-10 19-11 20-14 22-8 11-12 16-9 10-7 8-9 10-10 11-8 7-9 9-11 9-12 10-12 9-14 10-13 8-24 14-36 18-19 8-36 12-31 8-50 8-24 2h-40l-25-2-47-7-19-4-30-8-25-9-20-9-25-12-17-9-17-10-24-16-13-10-11-9-13-12-8-7-9-9-5-4-7-8-8-8-7-8-14-17-12-17-10-15-13-22-15-29-10-22-9-24-9-29-7-34-6-36-2-19-1-21v-21l2-31 4-27 7-38 8-29 10-29 13-29 10-20 14-24 10-16 12-17 9-12 12-14 7-7 7-8 20-20 8-7 12-11 14-11 15-12 20-13 22-13 7-5 1-31 1-93 3-186 3-262 3-219z" fill="#020202"/>
<path transform="translate(1e3 1139)" d="m0 0h30l27 2 23 3 25 6 33 11 20 9 23 12 20 13 14 10 11 9 13 11 12 11 9 9 9 11 14 18 18 27 12 22 10 22 12 36 8 31 3 23 1 11v43l-3 33-5 24-7 25-10 28-13 28-10 17-12 18-12 16-9 11-9 10-7 8-8 7-11 10-17 13-14 10-19 12-25 13-34 13-31 9-31 6-18 2-15 1h-30l-26-2-22-4-30-8-28-10-25-11-22-12-18-12-16-12-11-9-15-14-17-17-18-22-12-17-13-21-11-21-11-28-9-29-6-24-2-10-2-26v-47l2-25 7-31 6-21 8-23 11-25 10-18 15-23 14-19 11-13 15-16 7-7 8-7 14-12 17-12 17-11 23-13 20-9 22-8 34-9 25-4z" fill="#FEFEFE"/>
</svg>
